<svg xmlns="http://www.w3.org/2000/svg" viewBox="0 0 414.1 45.24"><defs><style>.cls-1{fill:none;stroke:#000;stroke-width:1.54px;}</style></defs><title>logo</title><g id="Layer_2" data-name="Layer 2"><g id="Layer_1-2" data-name="Layer 1"><path d="M66.76,1.64l-23.53,0-.07,42.16,15.16,0V35.21h8.42c11.54,0,18.63-5,18.65-16.73S78.35,1.66,66.76,1.64Zm-1.4,21h-7V14.22l7.06,0c2.76,0,4.62,1.41,4.61,4.22S68.18,22.62,65.36,22.62Z"/><path d="M111.93,0C97.22,0,88.44,2.63,88.4,22.45c0,21,8.74,22.5,23.45,22.53s23.74-1.49,23.77-22.45C135.66,2.72,126.68,0,111.93,0Zm-.06,31.88c-4.82,0-8.42.11-8.41-9.41,0-8.94,3.62-9.38,8.44-9.37s8.63.46,8.61,9.4C120.5,32,116.74,31.88,111.87,31.88Z"/><polygon points="221.91 14.25 235.76 14.28 235.7 43.79 250.91 43.82 250.97 14.3 264.44 14.32 264.47 1.68 221.93 1.6 221.91 14.25"/><polygon points="146.33 1.47 138.14 1.45 138.12 14.1 146.04 14.12 146.01 30.98 138.09 30.97 138.07 43.62 145.99 43.63 161.2 43.66 169.18 43.67 169.2 31.02 161.49 31.01 161.51 14.14 169.23 14.16 169.25 1.51 161.54 1.49 146.33 1.47"/><polygon points="203.9 22.5 202.49 22.5 190.38 1.54 173.01 1.51 172.94 43.68 187.74 43.71 187.78 22.77 189.14 22.78 201.65 43.73 218.67 43.76 218.74 1.59 203.93 1.57 203.9 22.5"/><polygon points="307.66 13.95 307.68 1.75 267.04 1.68 267.02 14.33 286.98 14.37 286.98 15.52 266.54 31.65 266.51 43.85 307.31 43.92 307.33 31.27 286.86 31.23 286.86 30.08 307.66 13.95"/><path d="M0,29.63l13.47,0c.55,2.52,3.21,3.53,6.13,3.53,4.77,0,6.74-2.4,6.74-4.51,0-2.36-2-4.32-6.33-4.33-3.87,0-5.63,1.65-6.34,2.45l-13.32,0L1.23,1.64l35.12.06,0,12-21.16,0-.11,3.92c1.21-.75,5-1.8,10-1.79,8.29,0,15.57,4.4,15.55,13.75C40.56,39.1,33.36,45,19.69,45,6.37,45-.26,39.93,0,29.63Z"/><path class="cls-1" d="M311.9,2.36h14.88V30.89H342V43.11H311.9Z"/><path class="cls-1" d="M347.76,2.36h14.89V43.11H347.76Z"/><path class="cls-1" d="M367.53,22.74C367.53,9.59,376.85,1,391,1c10.4,0,21.14,4.51,22.28,18.87h-14.2c-.93-4.22-3.84-6.21-8.08-6.21-4.78,0-8.67,3.45-8.67,9.08s3.89,9.07,8.67,9.07c4.24,0,7.15-2,8.08-6.31h14.2c-1.14,14.46-11.73,19-22.28,19C376.85,44.47,367.53,35.88,367.53,22.74Z"/></g></g></svg>